<svg width="137" height="113" viewBox="0 0 137 113" fill="none" xmlns="http://www.w3.org/2000/svg">
<g clip-path="url(#clip0_2292_3080)">
<path d="M51.769 77.085L51.8572 109.739L0.0881365 79.5481L0 46.8503L80.6686 0L132.438 30.2135L51.769 77.085Z" fill="#9EA9C9"/>
<path d="M132.436 30.2175L51.7704 77.0718L0.00268555 46.8543L80.67 0L132.436 30.2175Z" fill="#E3E7F0"/>
<path d="M10.1218 46.8736L80.6613 5.90039L122.314 30.2144L51.7736 71.1876L10.1218 46.8736Z" fill="#C9CEE2"/>
<path d="M132.43 30.2168L132.522 62.8948L51.8592 109.744L51.7671 77.0671L132.43 30.2168Z" fill="#1D2943"/>
<path d="M135.598 65.5522L53.7582 113.002L48.7423 110.074L48.6318 74.5593L130.473 27.1094L135.509 30.0374L135.598 65.5522Z" fill="#1D2943"/>
<path d="M53.7608 112.993L48.7423 110.065L48.6423 74.5488L53.6595 77.4768L53.7608 112.993Z" fill="#111D33"/>
<path d="M53.6595 77.4754L48.6423 74.5474L130.482 27.1094L135.499 30.0374L53.6595 77.4754Z" fill="#566B89"/>
<path d="M135.498 30.0371L135.6 65.5532L53.7602 112.991L53.6589 77.4752L135.498 30.0371Z" fill="#1D2943"/>
<path d="M70.837 74.584L70.8423 76.3986L67.6957 78.2238L67.6904 76.4079L70.837 74.584Z" fill="#F45170"/>
<path d="M66.7849 75.9923L71.7377 73.1211L71.7784 87.4255L66.8257 90.2967L66.7849 75.9923ZM70.8418 76.3991L70.8366 74.5844L67.69 76.4083L67.6952 78.2229L70.8418 76.3991Z" fill="#4C5C75"/>
<path d="M76.5652 93.0191C77.0388 92.7444 77.4242 92.9544 77.4255 93.4906C77.4268 94.0479 77.044 94.7135 76.5705 94.9882C76.0969 95.2629 75.7193 95.0371 75.718 94.4798C75.7167 93.9436 76.0903 93.2925 76.5652 93.0178V93.0191Z" fill="#FFD06C"/>
<path d="M76.5546 89.4727C77.19 89.1042 77.7096 89.3921 77.7109 90.1238C77.7135 90.8555 77.1966 91.7548 76.5612 92.1233C75.9258 92.4918 75.4062 92.1933 75.4036 91.4617C75.4009 90.73 75.9179 89.8412 76.5533 89.4727H76.5546Z" fill="#78E75A"/>
<path d="M78.1196 85.3633L78.1249 87.1568L74.9769 88.982L74.9717 87.1872L78.1196 85.3633Z" fill="#F45170"/>
<path d="M74.0247 71.795L78.9774 68.9238L79.0182 83.2283L74.0654 86.0995L74.0247 71.795ZM78.0829 72.2018L78.0776 70.3872L74.931 72.211L74.9363 74.0257L78.0829 72.2018Z" fill="#4C5C75"/>
<path d="M78.0791 70.3867L78.083 72.2014L74.9364 74.0252L74.9312 72.2106L78.0791 70.3867Z" fill="#F45170"/>
<path d="M81.2676 67.6056L86.2203 64.7344L86.2611 79.0388L81.3084 81.91L81.2676 67.6056ZM85.3245 68.0123L85.3192 66.1977L82.1726 68.0216L82.1779 69.8362L85.3245 68.0123Z" fill="#4C5C75"/>
<path d="M85.3187 66.1895L85.324 68.0041L82.1774 69.828L82.1721 68.0133L85.3187 66.1895Z" fill="#F45170"/>
<path d="M92.5604 62L92.5657 63.8146L89.4191 65.6385L89.4138 63.8239L92.5604 62Z" fill="#F45170"/>
<path d="M91.0467 81.0712C91.6808 80.7027 92.1925 80.9959 92.1951 81.7276C92.1977 82.4593 91.6887 83.3534 91.0546 83.7218C90.4192 84.0903 89.8996 83.7918 89.897 83.0602C89.8944 82.3285 90.4113 81.4397 91.0467 81.0712Z" fill="#78E75A"/>
<path d="M92.6029 76.9766L92.6082 78.7714L89.4616 80.5953L89.4563 78.8004L92.6029 76.9766Z" fill="#F45170"/>
<path d="M88.5066 63.398L93.4685 60.5215L93.5093 74.8259L88.5474 77.7024L88.5066 63.398ZM92.5648 63.8047L92.5596 61.9901L89.413 63.814L89.4182 65.6286L92.5648 63.8047Z" fill="#4C5C75"/>
<path d="M99.8024 57.7949L99.8076 59.6109L96.6597 61.4348L96.6558 59.6201L99.8024 57.7949Z" fill="#F45170"/>
<path d="M98.2877 76.8653C98.9217 76.4968 99.4427 76.7847 99.4453 77.5164C99.4479 78.248 98.9309 79.1474 98.2956 79.5159C97.6602 79.8844 97.1406 79.5859 97.1379 78.8542C97.1353 78.1226 97.6523 77.2337 98.2877 76.8653Z" fill="#78E75A"/>
<path d="M99.8537 72.7637L99.8577 74.5585L96.7111 76.3824L96.7058 74.5876L99.8537 72.7637Z" fill="#F45170"/>
<path d="M95.7485 59.2085L100.71 56.332L100.751 70.6365L95.7893 73.513L95.7485 59.2085ZM99.8068 59.6153L99.8015 57.8006L96.6549 59.6245L96.6602 61.4392L99.8068 59.6153Z" fill="#4C5C75"/>
<path d="M102.991 55.0112L107.953 52.1348L107.994 66.4392L103.032 69.3157L102.991 55.0112ZM107.048 55.418L107.043 53.6034L103.896 55.4273L103.902 57.2419L107.048 55.418Z" fill="#4C5C75"/>
<path d="M107.042 53.5977L107.048 55.4136L103.901 57.2375L103.896 55.4215L107.042 53.5977Z" fill="#F45170"/>
<path d="M114.335 64.3691L114.341 66.164L111.194 67.9878L111.189 66.193L114.335 64.3691Z" fill="#F45170"/>
<path d="M114.294 49.3984L114.299 51.2144L111.143 53.0436L111.138 51.2276L114.294 49.3984Z" fill="#F45170"/>
<path d="M110.233 50.812L115.195 47.9355L115.236 62.24L110.274 65.1165L110.233 50.812ZM114.3 51.2135L114.294 49.3989L111.138 51.228L111.144 53.0427L114.3 51.2135Z" fill="#4C5C75"/>
<path d="M120.02 64.2676C120.654 63.8991 121.175 64.1871 121.177 64.9187C121.179 65.6504 120.662 66.5498 120.027 66.9169C119.392 67.2854 118.872 66.9869 118.869 66.2553C118.867 65.5236 119.384 64.6348 120.019 64.2663L120.02 64.2676Z" fill="#78E75A"/>
<path d="M121.576 60.1719L121.582 61.9667L118.435 63.7906L118.43 61.9958L121.576 60.1719Z" fill="#F45170"/>
<path d="M117.472 46.6167L122.434 43.7402L122.475 58.0447L117.513 60.9212L117.472 46.6167ZM121.538 47.0182L121.533 45.2036L118.377 47.0327L118.382 48.8474L121.538 47.0182Z" fill="#4C5C75"/>
<path d="M121.535 45.1953L121.54 47.0099L118.385 48.8404L118.379 47.0245L121.535 45.1953Z" fill="#F45170"/>
<path d="M85.3612 81.166L85.3665 82.9595L82.2199 84.7834L82.2146 82.9899L85.3612 81.166Z" fill="#F45170"/>
<path d="M105.539 72.6665C106.165 72.3033 106.685 72.5913 106.687 73.3229C106.69 74.0546 106.173 74.954 105.547 75.3172C104.904 75.6909 104.392 75.3872 104.389 74.6555C104.387 73.9238 104.896 73.0403 105.539 72.6665Z" fill="#78E75A"/>
<path d="M107.093 68.5742L107.099 70.369L103.952 72.1929L103.947 70.3981L107.093 68.5742Z" fill="#F45170"/>
<path d="M69.3145 93.661C69.9499 93.2926 70.4603 93.5858 70.4629 94.3174C70.4656 95.0491 69.9565 95.9432 69.3224 96.3117C68.687 96.6802 68.1674 96.3817 68.1648 95.65C68.1622 94.9183 68.6792 94.0295 69.3145 93.661Z" fill="#78E75A"/>
<path d="M70.8793 89.5605L70.8845 91.3554L67.7379 93.1792L67.7327 91.3844L70.8793 89.5605Z" fill="#F45170"/>
<path d="M83.8067 85.2661C84.4329 84.903 84.9525 85.1909 84.9551 85.9225C84.9577 86.6542 84.4408 87.5536 83.8146 87.9168C83.1713 88.2892 82.6596 87.9868 82.657 87.2551C82.6544 86.5234 83.1634 85.6399 83.8067 85.2661Z" fill="#78E75A"/>
<path d="M112.798 72.0084C113.255 71.7442 113.64 71.9648 113.641 72.4904C113.643 73.0478 113.269 73.7081 112.803 73.9775C112.311 74.2628 111.935 74.0475 111.934 73.4796C111.933 72.9434 112.315 72.287 112.798 72.0071V72.0084Z" fill="#FFD06C"/>
<path d="M112.781 68.4716C113.416 68.1031 113.927 68.3963 113.929 69.128C113.932 69.8596 113.423 70.7538 112.789 71.1222C112.154 71.4907 111.634 71.1922 111.631 70.4606C111.629 69.7289 112.146 68.8401 112.781 68.4716Z" fill="#78E75A"/>
<path d="M69.3229 97.2087C69.7794 96.9445 70.174 97.1598 70.1753 97.6854C70.1766 98.2428 69.7938 98.9084 69.3295 99.1778C68.8559 99.4525 68.4784 99.2267 68.4771 98.6694C68.4757 98.1332 68.8493 97.4821 69.3242 97.2073L69.3229 97.2087Z" fill="#FFD06C"/>
<path d="M105.54 76.2144C106.014 75.9397 106.399 76.1497 106.402 76.6859C106.403 77.2432 106.02 77.9089 105.547 78.1836C105.082 78.453 104.695 78.2324 104.694 77.6751C104.693 77.1389 105.076 76.4825 105.541 76.2131L105.54 76.2144Z" fill="#FFD06C"/>
<path d="M98.298 80.4117C98.7716 80.137 99.157 80.347 99.1596 80.8832C99.1609 81.4405 98.7781 82.1061 98.3046 82.3808C97.8402 82.6502 97.4535 82.4297 97.4522 81.8724C97.4508 81.3362 97.8336 80.6798 98.2993 80.4103L98.298 80.4117Z" fill="#FFD06C"/>
<path d="M91.0577 84.6114C91.5221 84.342 91.9088 84.5625 91.9101 85.0882C91.9114 85.6455 91.5286 86.3111 91.0643 86.5805C90.5815 86.8605 90.2053 86.6453 90.2026 86.0774C90.2013 85.5412 90.5841 84.8848 91.0577 84.6101V84.6114Z" fill="#FFD06C"/>
<path d="M120.031 67.8242C120.496 67.5548 120.883 67.7648 120.884 68.301C120.885 68.8689 120.512 69.5187 120.038 69.7934C119.574 70.0628 119.187 69.8423 119.186 69.2849C119.184 68.7487 119.567 68.0923 120.033 67.8229L120.031 67.8242Z" fill="#FFD06C"/>
<path d="M83.8075 88.814C84.2811 88.5393 84.6665 88.7493 84.6692 89.2855C84.6705 89.8428 84.2877 90.5085 83.8141 90.7832C83.3405 91.0579 82.963 90.832 82.9617 90.2747C82.9604 89.7385 83.334 89.0874 83.8088 88.8127L83.8075 88.814Z" fill="#FFD06C"/>
<path d="M133.509 43.3896L133.481 62.5265L131.525 63.661L126.678 60.8677L126.705 59.0702L128.634 57.9357L129.956 58.711L130.011 45.4367L126.733 43.5283V41.7308L128.689 40.5977L133.509 43.3896Z" fill="#9B9FAE"/>
<path d="M126.696 59.0596L128.638 57.9277L131.908 59.8229L129.968 60.9561L126.696 59.0596Z" fill="#ADB2C3"/>
<path d="M131.575 44.5335L133.515 43.4004L133.469 62.5386L131.529 63.6717L131.575 44.5335Z" fill="#9B9FAE"/>
<path d="M126.738 41.7295L128.68 40.5977L133.515 43.4002L131.575 44.5333L126.738 41.7295Z" fill="#ADB2C3"/>
<path d="M131.575 44.5245L131.529 63.6627L126.692 60.8589L126.697 59.0535L129.968 60.95L130.004 45.4226L126.732 43.5274L126.738 41.7207L131.575 44.5245Z" fill="#6C6F79"/>
<path d="M62.8945 84.3323L62.8668 103.469L60.9121 104.602L56.0632 101.81L56.0909 100.013L58.0193 98.8785L59.3414 99.6524L59.3966 86.3781L56.1185 84.471V82.6735L58.0746 81.5391L62.8945 84.3323Z" fill="#9B9FAE"/>
<path d="M56.0811 100.002L58.0227 98.8691L61.2943 100.766L59.3526 101.897L56.0811 100.002Z" fill="#ADB2C3"/>
<path d="M60.9596 85.4671L62.9013 84.334L62.8552 103.472L60.9136 104.605L60.9596 85.4671Z" fill="#9B9FAE"/>
<path d="M56.1235 82.6722L58.0639 81.5391L62.9008 84.3429L60.9592 85.4761L56.1235 82.6722Z" fill="#ADB2C3"/>
<path d="M60.9594 85.4738L60.9134 104.612L56.0764 101.808L56.0817 100.003L59.3533 101.898L59.3888 86.3718L56.1185 84.4753L56.1238 82.6699L60.9594 85.4738Z" fill="#6C6F79"/>
</g>
<defs>
<clipPath id="clip0_2292_3080">
<rect width="136.139" height="113" fill="white"/>
</clipPath>
</defs>
</svg>
